<svg xmlns="http://www.w3.org/2000/svg" viewBox="0 0 64 64" width="96" height="96"><linearGradient id="qrTiYcxL0QWWaeyHUF5gba" x1="41.729" x2="41.729" y1="10" y2="54.8" gradientUnits="userSpaceOnUse" spreadMethod="reflect"><stop offset="0" stop-color="#1a6dff"/><stop offset="1" stop-color="#c822ff"/></linearGradient><path fill="url(#qrTiYcxL0QWWaeyHUF5gba)" d="M41.414,20.828c0.216,0,0.421,0,0.63,0c0-1.477,0-3.136,0-4.607c-0.213,0-0.415,0-0.63,0 C41.414,17.702,41.414,19.361,41.414,20.828z"/><linearGradient id="qrTiYcxL0QWWaeyHUF5gbb" x1="28.047" x2="28.047" y1="10" y2="54.8" gradientUnits="userSpaceOnUse" spreadMethod="reflect"><stop offset="0" stop-color="#1a6dff"/><stop offset="1" stop-color="#c822ff"/></linearGradient><path fill="url(#qrTiYcxL0QWWaeyHUF5gbb)" d="M27.733,20.752h0.627v-1.124c-0.086,0-0.386,0-0.627,0V20.752z"/><linearGradient id="qrTiYcxL0QWWaeyHUF5gbc" x1="14.126" x2="14.126" y1="10" y2="54.8" gradientUnits="userSpaceOnUse" spreadMethod="reflect"><stop offset="0" stop-color="#1a6dff"/><stop offset="1" stop-color="#c822ff"/></linearGradient><path fill="url(#qrTiYcxL0QWWaeyHUF5gbc)" d="M13.803,20.734h0.645c0-1.414,0-3.148,0-4.472c-0.223,0-0.435,0-0.645,0V20.734z"/><linearGradient id="qrTiYcxL0QWWaeyHUF5gbd" x1="21.11" x2="21.11" y1="10" y2="54.8" gradientUnits="userSpaceOnUse" spreadMethod="reflect"><stop offset="0" stop-color="#1a6dff"/><stop offset="1" stop-color="#c822ff"/></linearGradient><path fill="url(#qrTiYcxL0QWWaeyHUF5gbd)" d="M20.792,17.331h0.636v-1.073c-0.209,0-0.417,0-0.636,0 C20.792,16.62,20.792,16.97,20.792,17.331z"/><linearGradient id="qrTiYcxL0QWWaeyHUF5gbe" x1="14.069" x2="14.069" y1="10" y2="54.8" gradientUnits="userSpaceOnUse" spreadMethod="reflect"><stop offset="0" stop-color="#1a6dff"/><stop offset="1" stop-color="#c822ff"/></linearGradient><path fill="url(#qrTiYcxL0QWWaeyHUF5gbe)" d="M13.748,44.754h0.642c0-0.491,0-1.121,0-1.121h-0.642V44.754z"/><linearGradient id="qrTiYcxL0QWWaeyHUF5gbf" x1="34.935" x2="34.935" y1="10" y2="54.8" gradientUnits="userSpaceOnUse" spreadMethod="reflect"><stop offset="0" stop-color="#1a6dff"/><stop offset="1" stop-color="#c822ff"/></linearGradient><path fill="url(#qrTiYcxL0QWWaeyHUF5gbf)" d="M34.619,44.744c0.217,0,0.421,0,0.632,0c0-1.498,0-2.985,0-4.481c-0.212,0-0.412,0-0.632,0 C34.619,41.764,34.619,43.25,34.619,44.744z"/><linearGradient id="qrTiYcxL0QWWaeyHUF5gbg" x1="34.937" x2="34.937" y1="10" y2="54.8" gradientUnits="userSpaceOnUse" spreadMethod="reflect"><stop offset="0" stop-color="#1a6dff"/><stop offset="1" stop-color="#c822ff"/></linearGradient><path fill="url(#qrTiYcxL0QWWaeyHUF5gbg)" d="M34.615,30.353c0.219,0,0.427,0,0.644,0c0-0.364,0-0.716,0-1.079h-0.644 C34.615,29.652,34.615,30.106,34.615,30.353z"/><linearGradient id="qrTiYcxL0QWWaeyHUF5gbh" x1="42.782" x2="42.782" y1="10" y2="54.8" gradientUnits="userSpaceOnUse" spreadMethod="reflect"><stop offset="0" stop-color="#1a6dff"/><stop offset="1" stop-color="#c822ff"/></linearGradient><path fill="url(#qrTiYcxL0QWWaeyHUF5gbh)" d="M43.338,42.934c-0.788,0.16-1.489,0.395-2.144,0.719c-0.027,0.014-0.086,0.042-0.096,0.055 c-0.001,0.006,0.005,0.143,0.005,0.143c0.187-0.041,0.34-0.019,0.45,0.067c0.115,0.091,0.174,0.247,0.174,0.464 c0,0,0,0.681,0.001,0.894c0.001,0.394-0.182,0.703-0.542,0.92c-0.021,0.012-0.054,0.031-0.087,0.049v0.15 c0.908-0.391,1.826-0.676,2.801-0.87v-0.141c-0.017,0.001-0.036,0.002-0.057,0l-0.063-0.003c-0.11-0.005-0.226-0.011-0.338-0.041 c-0.225-0.061-0.329-0.196-0.329-0.427v-0.562l0.633,0.353l0.004-0.961l-0.638,0.47l0.002-1.075l1.352,0.757v-1.17l-0.284,0.051 C43.9,42.827,43.619,42.876,43.338,42.934z"/><linearGradient id="qrTiYcxL0QWWaeyHUF5gbi" x1="47.698" x2="47.698" y1="10" y2="54.8" gradientUnits="userSpaceOnUse" spreadMethod="reflect"><stop offset="0" stop-color="#1a6dff"/><stop offset="1" stop-color="#c822ff"/></linearGradient><path fill="url(#qrTiYcxL0QWWaeyHUF5gbi)" d="M56.219,43.743c-0.789-0.642-1.72-1.148-2.845-1.547c-1.302-0.461-2.751-0.741-4.431-0.857 c-0.376-0.026-0.737-0.029-1.136-0.031h-0.124H47.6c-0.405,0.002-0.771,0.005-1.147,0.031c-1.68,0.116-3.13,0.396-4.431,0.857 c-1.126,0.399-2.057,0.906-2.845,1.547c-0.487,0.397-0.872,0.813-1.178,1.273c-0.353,0.524-0.6,1.317-0.231,1.963 c0.37,0.6,0.515,1.283,0.438,2.042l-0.01,0.098c-0.03,0.295-0.056,0.549-0.056,1.005c0,0.33,0.082,0.656,0.22,0.872 c0.263,0.412,0.78,0.444,0.933,0.444c0.923,0,1.538-0.642,1.704-0.838c0.335-0.396,0.497-0.833,0.481-1.301 c0.068,0.025,0.14,0.06,0.221,0.109c0.016,0.01,0.058,0.041,0.115,0.081c0.79,0.561,1.362,0.909,1.773,0.909 c0.304,0,0.547-0.114,0.666-0.314l0.023-0.039l4.377-3.411h0.001c0.398,0.013,0.763,0.034,1.106,0.064 c0.068,0.006,1.177,3.042,1.177,3.042l0.206,0.344c0.119,0.199,0.362,0.314,0.666,0.314c0.411,0,0.983-0.348,1.773-0.909 c0.057-0.041,0.099-0.071,0.121-0.085c0.079-0.047,0.149-0.081,0.216-0.105c-0.015,0.471,0.147,0.906,0.481,1.301 c0.167,0.197,0.782,0.838,1.704,0.838c0.152,0,0.67-0.032,0.933-0.445c0.138-0.216,0.22-0.542,0.22-0.872 c0-0.456-0.026-0.71-0.056-1.005l-0.01-0.098c-0.077-0.76,0.068-1.442,0.43-2.028c0.378-0.66,0.131-1.453-0.224-1.98 C57.091,44.556,56.706,44.14,56.219,43.743z M57.193,46.73c-0.416,0.674-0.591,1.458-0.502,2.341 c0.033,0.329,0.064,0.573,0.064,1.053c0,0.219-0.053,0.464-0.142,0.603c-0.124,0.194-0.429,0.213-0.511,0.213l0,0 c-0.576,0-1.057-0.348-1.323-0.661c-0.414-0.489-0.369-0.921-0.357-1.047c0.007-0.075,0.083-0.182,0.266-0.182 c0.186,0,0.24,0.071,0.314,0.149c0.057,0.06,0.099,0.104,0.16,0.159c0.064,0.058,0.172,0.098,0.262,0.098 c0.014,0,0.027-0.001,0.04-0.003c0.056-0.009,0.098-0.038,0.107-0.095c0.002-0.016-0.004-0.066-0.013-0.084 c-0.071-0.151-0.182-0.234-0.324-0.317c-0.222-0.128-0.563-0.216-0.912-0.216c-0.273,0-0.532,0.033-0.881,0.24 c-0.118,0.07-1.225,0.92-1.632,0.92c-0.141,0-0.221-0.044-0.237-0.07c0.091,0,0.411-0.134,0.708-0.523 c0.27-0.353,0.464-0.759,0.665-0.96c0.267-0.266,0.535-0.51,1.21-0.51c0.209,0,0.648,0.109,0.907,0.307 c0.304,0.232,0.469,0.438,0.565,0.641c0.079,0.167,0.141,0.331,0.167,0.505c0.049,0.322,0.045,0.594-0.091,0.73 c-0.013,0.012-0.11,0.067-0.112,0.068c0.008,0.018,0.067,0.024,0.09,0.024c0.002,0,0.004,0,0.005,0 c0.182-0.016,0.309-0.186,0.309-0.457c0-0.279-0.104-0.493-0.198-0.599c0.094-0.019,0.184-0.038,0.29-0.059 c0.08,0.103,0.6,0.649,0.508,1.335c-0.022,0.164-0.106,0.26-0.192,0.357c0.146-0.048,0.214-0.164,0.254-0.298 c0.051-0.174,0.05-0.353,0.022-0.531c-0.058-0.383-0.212-0.724-0.439-1.037c-0.326-0.449-0.739-0.803-1.202-1.104 c-0.709-0.461-1.485-0.772-2.295-1.002c-0.841-0.239-1.699-0.384-2.567-0.48c-0.825-0.091-1.651-0.116-2.479-0.117 c-0.827,0.002-1.654,0.026-2.478,0.117c-0.869,0.095-1.727,0.241-2.567,0.48c-0.81,0.23-1.586,0.541-2.295,1.002 c-0.463,0.301-0.876,0.655-1.202,1.104c-0.227,0.313-0.381,0.654-0.439,1.037c-0.028,0.178-0.029,0.357,0.022,0.531 c0.04,0.133,0.107,0.249,0.254,0.298c-0.086-0.098-0.17-0.194-0.192-0.357c-0.092-0.685,0.428-1.231,0.508-1.335 c0.106,0.021,0.196,0.04,0.29,0.059c-0.094,0.107-0.198,0.32-0.198,0.599c0,0.27,0.127,0.441,0.309,0.457c0.001,0,0.003,0,0.005,0 c0.022,0,0.082-0.006,0.09-0.024c-0.002-0.001-0.1-0.055-0.112-0.068c-0.136-0.135-0.14-0.408-0.091-0.73 c0.026-0.174,0.088-0.338,0.167-0.505c0.096-0.203,0.261-0.409,0.565-0.641c0.259-0.197,0.698-0.307,0.907-0.307 c0.675,0,0.943,0.245,1.21,0.51c0.201,0.201,0.395,0.607,0.665,0.96c0.297,0.389,0.617,0.523,0.708,0.523 c-0.016,0.027-0.096,0.07-0.237,0.07c-0.407,0-1.514-0.85-1.632-0.92c-0.348-0.207-0.608-0.24-0.881-0.24 c-0.35,0-0.69,0.088-0.912,0.216c-0.143,0.083-0.254,0.166-0.324,0.317c-0.008,0.018-0.015,0.067-0.013,0.084 c0.008,0.057,0.051,0.086,0.107,0.095c0.013,0.002,0.026,0.003,0.04,0.003c0.089,0,0.198-0.04,0.262-0.098 c0.061-0.055,0.103-0.099,0.16-0.159c0.074-0.078,0.127-0.149,0.314-0.149c0.184,0,0.26,0.107,0.266,0.182 c0.012,0.127,0.057,0.558-0.357,1.047c-0.265,0.313-0.747,0.661-1.323,0.661c-0.082,0-0.387-0.019-0.511-0.213 c-0.089-0.139-0.142-0.384-0.142-0.603c0-0.479,0.031-0.723,0.064-1.053c0.089-0.883-0.086-1.667-0.502-2.341 c-0.346-0.604,0.167-1.368,0.213-1.438c0.296-0.445,0.664-0.825,1.077-1.162c0.806-0.656,1.72-1.117,2.697-1.464 c1.39-0.492,2.832-0.728,4.298-0.829c0.372-0.026,0.743-0.028,1.115-0.03c0.014,0,0.046,0,0.081,0c0.048,0,0.102,0,0.123,0 c0.368,0.001,0.736,0.004,1.104,0.029c1.467,0.101,2.908,0.337,4.298,0.829c0.976,0.346,1.89,0.808,2.697,1.464 c0.413,0.337,0.781,0.717,1.077,1.162C57.027,45.362,57.539,46.126,57.193,46.73z"/><linearGradient id="qrTiYcxL0QWWaeyHUF5gbj" x1="38.58" x2="38.58" y1="10" y2="54.8" gradientUnits="userSpaceOnUse" spreadMethod="reflect"><stop offset="0" stop-color="#1a6dff"/><stop offset="1" stop-color="#c822ff"/></linearGradient><path fill="url(#qrTiYcxL0QWWaeyHUF5gbj)" d="M38.222,41.05l-0.036-0.046c-0.06-0.076-0.122-0.138-0.185-0.191v2.668 c0.174-0.174,0.345-0.348,0.547-0.514c0.195-0.159,0.4-0.308,0.61-0.453c-0.174-0.304-0.348-0.609-0.53-0.908 C38.52,41.429,38.375,41.245,38.222,41.05z"/><linearGradient id="qrTiYcxL0QWWaeyHUF5gbk" x1="49.313" x2="49.313" y1="10" y2="54.8" gradientUnits="userSpaceOnUse" spreadMethod="reflect"><stop offset="0" stop-color="#1a6dff"/><stop offset="1" stop-color="#c822ff"/></linearGradient><path fill="url(#qrTiYcxL0QWWaeyHUF5gbk)" d="M53.576,43.497c-0.142-0.058-0.283-0.115-0.428-0.166c-0.202-0.071-0.466-0.154-0.623-0.201 c-1.226-0.37-2.595-0.565-4.239-0.636c-1.127-0.051-2.185-0.002-3.249,0.143c-0.092,0.013-0.184,0.028-0.276,0.043l-0.035,0.005 v0.149c0.028,0,0.053,0,0.079,0.002c0.306,0.022,0.546,0.255,0.548,0.528c0.004,0.305,0.004,0.459,0.005,0.764l0.001,0.417 c0.002,0.122-0.037,0.236-0.114,0.34c-0.124,0.167-0.278,0.282-0.457,0.341c-0.017,0.005-0.032,0.011-0.048,0.016v0.14 c0.858-0.126,1.661-0.195,2.469-0.214c-0.001-0.019-0.002-0.127-0.003-0.144h-0.001c-0.396-0.04-0.635-0.298-0.636-0.691 c0,0-0.007-0.57-0.007-0.987c0-0.285,0.207-0.724,0.621-0.724c0.244,0,0.422,0.3,0.484,0.415l1.037,2.163l0.794,0.054 c0.028-0.065,0.907-2.091,0.964-2.167c0.145-0.196,0.346-0.214,0.492-0.182c0.376,0.084,0.398,0.463,0.406,0.551 c0.005,0.061,0.007,1.046,0.003,1.38c-0.002,0.309-0.143,0.448-0.456,0.448c-0.002,0-0.163,0-0.163,0v0.137 c0.79,0.098,1.726,0.285,3.154,0.892v-1.281c-0.05-0.021-0.069-0.013-0.146,0.024c-0.055,0.026-1.227,0.605-1.227,0.605v-1.117 l0.617,0.577v-0.977l-0.617,0.237V43.28c0,0,0.595,0.571,1.266,1.259l0,0c0.042,0.042,0.072,0.065,0.109,0.08v-0.952 c0-0.038-0.003-0.043-0.037-0.056C53.767,43.574,53.672,43.536,53.576,43.497z M50.06,43.379l-0.559,1.254l-0.521-1.097 c-0.041-0.092-0.083-0.184-0.123-0.276c-0.072-0.167-0.047-0.267,0.085-0.38c0.186-0.156,0.37-0.178,0.552-0.164 c0.193,0.014,0.382,0.114,0.523,0.319C50.089,43.142,50.104,43.27,50.06,43.379z"/><linearGradient id="qrTiYcxL0QWWaeyHUF5gbl" x1="47.466" x2="47.466" y1="38.188" y2="54.827" gradientUnits="userSpaceOnUse" spreadMethod="reflect"><stop offset="0" stop-color="#6dc7ff"/><stop offset="1" stop-color="#e6abff"/></linearGradient><path fill="url(#qrTiYcxL0QWWaeyHUF5gbl)" d="M49.759,46.701L49.203,48l-0.55-1.363c-0.297-0.01-0.608-0.016-0.955-0.017 c-0.978,0.002-1.725,0.037-2.425,0.114c-0.936,0.103-1.748,0.254-2.485,0.464c-0.005,0.001-0.01,0.003-0.015,0.005 c1.379,2.612,2.75,5.208,4.117,7.797h1.621c1.216-2.634,2.427-5.261,3.648-7.906c-0.62-0.152-1.281-0.276-2.038-0.359 C50.002,46.722,49.88,46.711,49.759,46.701z"/><linearGradient id="qrTiYcxL0QWWaeyHUF5gbm" x1="42.556" x2="42.556" y1="38.188" y2="54.827" gradientUnits="userSpaceOnUse" spreadMethod="reflect"><stop offset="0" stop-color="#6dc7ff"/><stop offset="1" stop-color="#e6abff"/></linearGradient><path fill="url(#qrTiYcxL0QWWaeyHUF5gbm)" d="M36.838,39.61c0.135,0,0.264,0,0.391,0c0.064,0,0.127,0,0.19,0 c0.322,0.001,0.611,0.07,0.868,0.201c0.257,0.131,0.482,0.324,0.679,0.572c0.18,0.228,0.363,0.456,0.514,0.702 c0.328,0.538,0.636,1.087,0.952,1.633c0.026,0.045,0.053,0.093,0.08,0.141c0.231-0.124,0.471-0.242,0.722-0.352 c0.251-0.111,0.513-0.214,0.788-0.312c0.651-0.23,1.338-0.416,2.073-0.558s1.517-0.241,2.357-0.299 c0.014-0.001,0.027-0.001,0.041-0.002c-0.003-0.013-0.008-0.027-0.01-0.04c-0.032-0.174-0.078-0.349-0.089-0.525l0,0 c-0.025-0.431,0.133-0.775,0.538-0.973c0.114-0.056,0.239-0.096,0.362-0.127c0.122-0.03,0.245-0.047,0.369-0.056 c0.045-0.004,0.09-0.004,0.135-0.006c0.056-0.002,0.111-0.007,0.167-0.007c0.038,0,0.076,0,0.113,0.001h0.195v-1.599H36.838 C36.838,38.005,36.838,39.067,36.838,39.61z"/><linearGradient id="qrTiYcxL0QWWaeyHUF5gbn" x1="53.941" x2="53.941" y1="38.188" y2="54.827" gradientUnits="userSpaceOnUse" spreadMethod="reflect"><stop offset="0" stop-color="#6dc7ff"/><stop offset="1" stop-color="#e6abff"/></linearGradient><path fill="url(#qrTiYcxL0QWWaeyHUF5gbn)" d="M49.882,39.578c0.054,0.003,0.098,0.005,0.141,0.008c0.251,0.021,0.502,0.03,0.751,0.066 c0.33,0.046,0.64,0.154,0.913,0.352c0.22,0.159,0.35,0.371,0.381,0.642c0.042,0.363-0.041,0.708-0.17,1.044 c-0.01,0.025-0.021,0.052-0.031,0.078c0.522,0.121,1.028,0.258,1.506,0.427c0.303,0.108,0.59,0.224,0.866,0.348l0,0 c0.002-0.004,0.004-0.008,0.006-0.012c0.18-0.334,0.345-0.676,0.542-0.999c0.191-0.314,0.398-0.621,0.625-0.91 c0.38-0.48,0.861-0.823,1.474-0.957c0.302-0.065,0.608-0.088,0.917-0.08c0.065,0.002,0.197,0,0.197,0V38h-8.117 C49.882,38,49.882,39.05,49.882,39.578z"/><linearGradient id="qrTiYcxL0QWWaeyHUF5gbo" x1="31.5" x2="31.5" y1="10" y2="54.8" gradientUnits="userSpaceOnUse" spreadMethod="reflect"><stop offset="0" stop-color="#1a6dff"/><stop offset="1" stop-color="#c822ff"/></linearGradient><path fill="url(#qrTiYcxL0QWWaeyHUF5gbo)" d="M50.615,24.628l-3.865-0.002V10h-6.66v2.003c-0.31,0.006-0.597,0.043-0.867,0.11 c-0.316,0.078-0.602,0.203-0.867,0.353c-0.482-0.277-1.011-0.445-1.581-0.463c-0.067-0.002-10.439-0.002-10.439-0.002 c-0.624,0-1.2,0.175-1.719,0.48C24.091,12.175,23.513,12,22.893,12l-10.517,0.001c-0.762,0.001-1.487,0.243-2.099,0.698 C9.454,13.311,9,14.213,9,15.24v12.508c1.539,0,5.513,0,6,0v4.003h1l0.005,3.292c0.023,0.335,0.098,0.655,0.222,0.953L16.229,36 h-0.354h-3.526c-0.787,0-1.533,0.264-2.164,0.764c-0.771,0.611-1.173,1.486-1.181,2.465c-0.004,0.524,0.001,6.57,0.001,6.57 C9,46.864,9.467,47.549,9.859,47.936c0.702,0.692,1.565,1.059,2.498,1.062c0,0,9.55-0.001,10.038,0.002 c0.725,0,1.386-0.223,1.989-0.638c0.584,0.405,1.266,0.631,1.992,0.634L29.528,49c0.682,0,1.309-0.188,1.885-0.54 c0.565,0.348,1.202,0.54,1.889,0.54h3.899l0.008-0.079c0.055-0.543-0.042-1.007-0.311-1.445c-0.089-0.156-0.151-0.315-0.201-0.475 h-3.389c-0.462,0.002-0.855-0.166-1.182-0.496c-0.168-0.169-0.251-0.376-0.251-0.621c0.001-2.254,0.001-4.508,0-6.761 c0-0.218,0.067-0.41,0.202-0.573c0.283-0.341,0.643-0.545,1.084-0.549l2.677,0.005V37h17.168c0.641-0.605,1.002-1.406,0.994-2.316 v-9.182L50.615,25.5V24.628z M15.766,25.75c-1.391-0.004-3.278-0.003-4.753-0.003v-2.224h3.446v-0.559h-1.94 c-0.368,0-0.707-0.091-1.016-0.296C11.168,22.447,11,22.152,11,21.738V15.24c0-0.402,0.156-0.702,0.471-0.936 c0.27-0.201,0.573-0.302,0.907-0.303c1.446-0.001,4.869,0,4.869,0c0,3.857,0.003,8.506,0.003,10.559 c0,0.366-0.154,0.635-0.434,0.846C16.505,25.64,16.157,25.751,15.766,25.75z M17.125,46.999c-1.487,0-3.335,0.002-4.76-0.001 c-0.431-0.002-0.794-0.183-1.101-0.485c-0.194-0.191-0.261-0.437-0.26-0.706c0.002-0.496,0.015-2.594-0.004-3.147 c-0.014-0.425,0.161-0.73,0.48-0.969c0.284-0.214,0.596-0.329,0.955-0.323h1.955v-1.101h-0.653v0.528h-2.731 c0-0.522,0.002-1.218-0.002-1.585c-0.004-0.37,0.143-0.656,0.424-0.879C11.699,38.117,12,37.999,12.346,38 c1.146,0.002,2.29,0.002,3.436,0c0.422-0.001,0.774,0.164,1.07,0.466c0.184,0.188,0.273,0.419,0.273,0.684 C17.125,41.594,17.125,44.512,17.125,46.999z M23.75,45.853c0.002,0.314-0.105,0.56-0.332,0.75 c-0.296,0.248-0.625,0.399-1.012,0.397c-1.065-0.005-2.13-0.003-3.194-0.001c-0.435,0-0.798-0.171-1.098-0.503 c-0.157-0.174-0.238-0.378-0.238-0.622c0.001-2.331,0.001-5.4,0.001-7.872c0.887,0.003,1.98,0.009,2.618,0.009v6.742h0.626 L21.123,38h2.627V45.853z M24,29.752h-3.347V33.7c0.217,0,0.64,0,0.64,0s0-1.124,0-1.683c0-0.56,0-1.69,0-1.69H24v4.377 c0.004,0.416-0.154,0.723-0.471,0.959c-0.299,0.222-0.626,0.342-0.998,0.34l-3.144-0.004c-0.459-0.002-0.846-0.183-1.159-0.531 c-0.142-0.158-0.212-0.345-0.227-0.558c0-1.462,0-5.077,0-5.157H17v-2.254h0.996V26l2.62,0v1.498c1.128,0,2.264,0.003,3.384,0.003 V29.752z M31,40.75h-3.347v3.948c0.217,0,0.64,0,0.64,0s0-1.124,0-1.683c0-0.56,0-1.69,0-1.69H31v4.377 c0.004,0.416-0.154,0.723-0.471,0.959c-0.299,0.222-0.626,0.342-0.998,0.34l-3.144-0.004c-0.459-0.002-0.846-0.183-1.159-0.531 c-0.142-0.158-0.212-0.345-0.227-0.558c0-1.462,0-5.077,0-5.157h-0.75v-2.254h0.746v-0.873l2.62,0.002v0.872 c1.128,0,2.264,0.003,3.384,0.003v2.249H31z M31,36h-2.592v-6.655h-0.681l0.001,6.656H25.01V26.75c0,0-1.487,0-2.193,0 c-0.426,0-0.782-0.165-1.082-0.458c-0.19-0.184-0.279-0.406-0.278-0.676c0.001-0.202,0.001-0.461,0.001-0.741h-0.001 c0.001-1.892,0-5.188,0-5.258h-0.676c0,0,0,2.919,0,4.377H18V14h4.893c0.453,0,0.82,0.192,1.126,0.515 c0.162,0.172,0.229,0.385,0.23,0.616c0.003,0.92,0.001,1.839,0.002,2.759c0,0.182-0.076,0.321-0.223,0.423 c-0.032,0.023-0.065,0.045-0.128,0.109c0.024,0.006,0.051,0.004,0.069,0.018c0.157,0.115,0.24,0.275,0.264,0.466 c0.011,0.091,0.018,0.183,0.018,0.275c0.001,0.975,0.001,3.673,0.001,5.271h3.478c0.001,0.553,0.001,2.203,0.001,2.565 c0.706,0,1.494-0.001,1.927,0.002c0.443,0.003,0.815,0.175,1.113,0.502c0.153,0.168,0.227,0.37,0.232,0.596C31,28.157,31,36,31,36z M31.125,22.998c-1.462,0-3.369-0.002-4.697,0.002c-0.395,0.002-0.74-0.124-1.044-0.372c-0.25-0.204-0.386-0.466-0.384-0.806 c0.007-1.094,0.005-2.189,0.001-3.284c-0.001-0.259,0.084-0.473,0.258-0.652c0.327-0.338,0.711-0.529,1.188-0.52l1.931,0.002v-1.103 h-0.641v0.507h-2.734c0,0,0-1.236,0-1.661c0-0.243,0.092-0.45,0.253-0.622c0.293-0.313,0.648-0.488,1.078-0.488 c1.147,0.001,2.294,0.003,3.441-0.001c0.392-0.001,0.725,0.142,1.013,0.402c0.212,0.191,0.331,0.436,0.336,0.73L31.125,22.998 L31.125,22.998z M31.875,14.015h2.722v0.509c0.034-0.005,0.053-0.002,0.064-0.011c0.473-0.342,1.015-0.458,1.578-0.5 c0.157-0.011,0.316-0.015,0.474-0.011c0.436,0.014,0.79,0.212,1.08,0.535c0.142,0.159,0.199,0.358,0.207,0.572 c0,0.04,0,0.081,0,0.121V23h-2.732l-0.002-6.73h-0.662L34.598,23h-2.723C31.875,22.999,31.875,17.014,31.875,14.015z M35.262,33.749 v-0.552h2.736c0,0.527-0.001,1.249,0.001,1.679c0.001,0.276-0.104,0.504-0.302,0.682c-0.313,0.283-0.677,0.443-1.102,0.442 c-1.095-0.002-2.189-0.003-3.283,0c-0.404,0.002-0.759-0.131-1.071-0.389c-0.242-0.199-0.366-0.454-0.366-0.776v-6.663 c0-0.299,0.111-0.547,0.324-0.748c0.312-0.295,0.684-0.425,1.105-0.424c1.089,0.001,2.177,0.002,3.266,0 c0.416-0.001,0.783,0.124,1.093,0.411c0.225,0.207,0.337,0.459,0.336,0.774l-0.002,4.448h-3.382c0,0,0,0.74,0,1.116H35.262z M38.752,15.287c0-0.647,0.329-1.08,0.949-1.233c0.142-0.035,0.293-0.051,0.44-0.052L42.09,14c0,0,0-1.27,0-2h2.66v11h-4.607 c-0.385,0.001-0.72-0.129-1.02-0.366c-0.25-0.198-0.376-0.455-0.372-0.787L38.752,15.287z M41.444,36H38.75c0,0,0-5.177,0-7.169 c0-0.217,0.001-0.435,0-0.653c-0.002-0.306,0.111-0.556,0.326-0.76c0.323-0.306,0.707-0.419,1.137-0.418 c1.011,0.005,3.92,0.001,4.537,0v2.25h-3.306v0.552h3.306V32h-3.306V36z M42.375,36v-3h2.5c0,0,0,1.308,0,1.75 c0,0.5,0.084,0.818,0.333,1.175c0.015,0.022,0.042,0.072,0.042,0.072L42.375,36z M51.999,27.502v2.25h-3.347V33.7 c0.217,0,0.64,0,0.64,0s0-1.124,0-1.683c0-0.56,0-1.69,0-1.69h2.707v4.377c0.004,0.416-0.154,0.723-0.471,0.959 c-0.296,0.22-0.619,0.34-0.987,0.34c-0.004,0-0.007,0-0.011,0h-3.143c-0.459-0.002-0.846-0.187-1.159-0.535 c-0.142-0.158-0.212-0.345-0.227-0.558c0-1.462,0-5.077,0-5.157h-0.75v-2.254h0.746v-0.873l2.619,0.002V27.5 C49.744,27.498,50.88,27.502,51.999,27.502z"/></svg>