<svg xmlns="http://www.w3.org/2000/svg" viewBox="0 0 64 64" width="96" height="96"><linearGradient id="lzVbam9nhRMhg49RTIjmFa" x1="31.706" x2="31.706" y1="6" y2="17.548" gradientUnits="userSpaceOnUse" spreadMethod="reflect"><stop offset="0" stop-color="#6dc7ff"/><stop offset="1" stop-color="#e6abff"/></linearGradient><path fill="url(#lzVbam9nhRMhg49RTIjmFa)" d="M20.982,17.548C24.044,15.208,27.857,13.8,32,13.8c3.96,0,7.617,1.286,10.607,3.44l4.993-5.99 C43.248,7.969,37.856,6,32,6c-6.119,0-11.742,2.139-16.188,5.689L20.982,17.548z"/><linearGradient id="lzVbam9nhRMhg49RTIjmFb" x1="32" x2="32" y1="12.915" y2="58" gradientUnits="userSpaceOnUse" spreadMethod="reflect"><stop offset="0" stop-color="#1a6dff"/><stop offset="1" stop-color="#c822ff"/></linearGradient><path fill="url(#lzVbam9nhRMhg49RTIjmFb)" d="M49.597,12.915l-4.991,5.988C48.047,22.216,50.2,26.857,50.2,32c0,3.359-0.93,6.497-2.523,9.2 L36.975,30.7L33,20.3v16.9l9.685,9.502C39.68,48.892,35.994,50.2,32,50.2s-7.68-1.308-10.685-3.498L31,37.2V20.3l-3.975,10.4 L16.323,41.2C14.73,38.497,13.8,35.359,13.8,32c0-4.958,1.998-9.455,5.225-12.74l-5.164-5.853C9.02,18.133,6,24.716,6,32 c0,14.336,11.664,26,26,26c14.336,0,26-11.664,26-26C58,24.453,54.749,17.669,49.597,12.915z M35,31.135l0.107,0.279l0.156,0.408 l0.312,0.306L46.044,42.4L43.6,44.798L35,36.36V31.135z M28.426,32.128l0.312-0.306l0.156-0.408L29,31.135v5.226l-8.6,8.438 L17.956,42.4L28.426,32.128z M32,56C18.766,56,8,45.234,8,32c0-5.795,2.05-11.268,5.812-15.625l2.537,2.875 C13.403,22.85,11.8,27.312,11.8,32c0,11.138,9.062,20.2,20.2,20.2c11.138,0,20.2-9.062,20.2-20.2c0-4.897-1.734-9.512-4.919-13.183 l2.446-2.935C53.736,20.289,56,26.055,56,32C56,45.234,45.234,56,32,56z"/></svg>