<?xml version="1.0" encoding="UTF-8" standalone="yes"?>
<svg xmlns="http://www.w3.org/2000/svg" viewBox="0 0 50 50" width="34" height="34" fill="#f3f0ff">
  <path d="M 25 0 C 23.253906 0 21.667969 0.214844 20.4375 0.625 C 19.820313 0.832031 19.285156 1.089844 18.84375 1.4375 C 18.402344 1.785156 18 2.320313 18 3 C 18 3.679688 18.402344 4.214844 18.84375 4.5625 C 19.285156 4.910156 19.820313 5.167969 20.4375 5.375 C 21.667969 5.785156 23.253906 6 25 6 C 26.746094 6 28.332031 5.785156 29.5625 5.375 C 30.179688 5.167969 30.714844 4.910156 31.15625 4.5625 C 31.597656 4.214844 32 3.679688 32 3 C 32 2.320313 31.597656 1.785156 31.15625 1.4375 C 30.714844 1.089844 30.179688 0.832031 29.5625 0.625 C 28.332031 0.214844 26.746094 0 25 0 Z M 25 2 C 26.566406 2 27.996094 2.21875 28.9375 2.53125 C 29.40625 2.6875 29.742188 2.871094 29.90625 3 C 29.742188 3.128906 29.40625 3.3125 28.9375 3.46875 C 27.996094 3.78125 26.566406 4 25 4 C 23.433594 4 22.003906 3.78125 21.0625 3.46875 C 20.59375 3.3125 20.257813 3.128906 20.09375 3 C 20.257813 2.871094 20.59375 2.6875 21.0625 2.53125 C 22.003906 2.21875 23.433594 2 25 2 Z M 9 4 C 6.105469 4 3.761719 5.339844 2.25 7.4375 C 0.738281 9.535156 0 12.34375 0 15.40625 C 0 25.195313 4.109375 35.226563 5 49.0625 C 5.027344 49.546875 5.394531 49.941406 5.875 50 C 7.367188 50.199219 8.574219 49.773438 9.5625 49.0625 C 9.683594 49.042969 9.800781 49 9.90625 48.9375 C 11.523438 48.890625 12.925781 48.273438 13.65625 46.96875 C 13.917969 46.5 14.070313 45.945313 14.1875 45.34375 C 14.3125 46.597656 14.507813 47.855469 14.8125 49.21875 C 14.933594 49.761719 15.472656 50.105469 16.015625 49.984375 C 16.558594 49.863281 16.902344 49.324219 16.78125 48.78125 C 16.195313 46.152344 16 43.953125 16 41.40625 C 17.394531 41.597656 21.238281 42.445313 23 46.40625 C 23.160156 46.765625 23.515625 46.996094 23.90625 47 L 26.09375 47 C 26.484375 46.996094 26.839844 46.765625 27 46.40625 C 28.761719 42.445313 32.605469 41.597656 34 41.40625 C 34 43.953125 33.804688 46.152344 33.21875 48.78125 C 33.097656 49.324219 33.441406 49.863281 33.984375 49.984375 C 34.527344 50.105469 35.066406 49.761719 35.1875 49.21875 C 35.492188 47.84375 35.6875 46.578125 35.8125 45.3125 C 35.929688 45.914063 36.078125 46.46875 36.34375 46.9375 C 37.082031 48.238281 38.476563 48.859375 40.09375 48.9375 C 40.199219 49 40.316406 49.042969 40.4375 49.0625 C 41.40625 49.796875 42.644531 50.199219 44.125 50 C 44.605469 49.941406 44.972656 49.546875 45 49.0625 C 45.890625 35.226563 50 25.195313 50 15.40625 C 50 12.34375 49.261719 9.535156 47.75 7.4375 C 46.238281 5.339844 43.894531 4 41 4 C 37.886719 4 35.800781 6.351563 34.25 8.40625 C 33.472656 9.433594 32.8125 10.417969 32.21875 11.09375 C 31.625 11.769531 31.179688 12 31 12 C 30.453125 12.007813 30.015625 12.453125 30.015625 13 C 30.015625 13.546875 30.453125 13.992188 31 14 C 31.988281 14 33.140625 14.78125 34.25 15.96875 C 35.359375 17.15625 36.363281 18.648438 37.1875 19.78125 C 38.027344 20.96875 39.003906 22.449219 39.78125 23.65625 C 40.167969 24.261719 40.523438 24.792969 40.75 25.1875 C 40.832031 25.332031 40.886719 25.433594 40.9375 25.53125 C 40.917969 25.578125 40.902344 25.601563 40.875 25.65625 C 40.742188 25.925781 40.527344 26.3125 40.28125 26.75 C 39.785156 27.628906 39.109375 28.742188 38.4375 29.84375 C 37.09375 32.046875 35.75 34.15625 35.75 34.15625 C 35.5625 34.460938 35.550781 34.839844 35.71875 35.15625 C 35.71875 35.15625 36.191406 36.132813 36.375 37.34375 C 36.527344 38.339844 36.460938 39.324219 35.875 40.125 C 35.691406 39 35.273438 37.890625 34.8125 36.84375 C 34.816406 36.667969 34.773438 36.496094 34.6875 36.34375 C 34.3125 35.59375 33.921875 34.734375 34.03125 34.40625 C 34.03125 34.402344 34.03125 34.378906 34.03125 34.375 C 34.433594 33.445313 35.523438 31.445313 36.5 29.75 C 37.480469 28.046875 38.34375 26.625 38.34375 26.625 C 38.566406 26.277344 38.554688 25.832031 38.3125 25.5 L 33.40625 18.8125 C 33.300781 18.675781 33.160156 18.566406 33 18.5 C 32.253906 17.613281 31.472656 16.976563 31.03125 16.625 C 30.820313 16.453125 30.550781 16.375 30.28125 16.40625 C 29.941406 16.449219 29.648438 16.660156 29.5 16.96875 C 28.59375 18.925781 27.734375 20.023438 27.03125 20.96875 C 26.539063 21.628906 26.109375 22.296875 25.875 23.09375 C 25.585938 23.050781 25.292969 23 25 23 C 24.722656 23 24.417969 23.027344 24.125 23.0625 C 23.890625 22.28125 23.453125 21.621094 22.96875 20.96875 C 22.265625 20.023438 21.40625 18.925781 20.5 16.96875 C 20.3125 16.566406 19.878906 16.335938 19.4375 16.40625 C 19.265625 16.4375 19.101563 16.511719 18.96875 16.625 C 18.527344 16.976563 17.746094 17.613281 17 18.5 C 16.996094 18.503906 16.972656 18.496094 16.96875 18.5 C 16.820313 18.570313 16.691406 18.679688 16.59375 18.8125 L 11.6875 25.5 C 11.445313 25.832031 11.433594 26.277344 11.65625 26.625 C 11.65625 26.625 12.519531 28.046875 13.5 29.75 C 14.476563 31.445313 15.566406 33.445313 15.96875 34.375 C 15.972656 34.378906 15.964844 34.402344 15.96875 34.40625 C 16.078125 34.734375 15.6875 35.59375 15.3125 36.34375 C 15.265625 36.433594 15.234375 36.527344 15.21875 36.625 C 15.207031 36.664063 15.195313 36.707031 15.1875 36.75 C 14.710938 37.816406 14.316406 38.972656 14.125 40.125 C 13.539063 39.324219 13.472656 38.339844 13.625 37.34375 C 13.808594 36.132813 14.28125 35.15625 14.28125 35.15625 C 14.449219 34.839844 14.4375 34.460938 14.25 34.15625 C 14.25 34.15625 12.90625 32.046875 11.5625 29.84375 C 10.890625 28.742188 10.214844 27.628906 9.71875 26.75 C 9.472656 26.3125 9.257813 25.925781 9.125 25.65625 C 9.09375 25.589844 9.085938 25.550781 9.0625 25.5 C 9.109375 25.402344 9.160156 25.28125 9.25 25.125 C 9.472656 24.730469 9.800781 24.191406 10.1875 23.59375 C 10.960938 22.398438 11.96875 20.972656 12.8125 19.78125 C 12.8125 19.769531 12.8125 19.761719 12.8125 19.75 C 13.574219 18.628906 14.554688 17.152344 15.65625 15.96875 C 16.757813 14.785156 17.945313 14 19 14 C 19.546875 13.992188 19.984375 13.546875 19.984375 13 C 19.984375 12.453125 19.546875 12.007813 19 12 C 18.820313 12 18.375 11.769531 17.78125 11.09375 C 17.1875 10.417969 16.527344 9.433594 15.75 8.40625 C 14.199219 6.351563 12.113281 4 9 4 Z M 9 6 C 11.085938 6 12.652344 7.648438 14.125 9.59375 C 14.859375 10.566406 15.558594 11.582031 16.28125 12.40625 C 16.378906 12.519531 16.488281 12.609375 16.59375 12.71875 C 15.707031 13.203125 14.914063 13.847656 14.21875 14.59375 C 12.945313 15.960938 11.925781 17.542969 11.1875 18.625 C 10.332031 19.832031 9.332031 21.300781 8.53125 22.53125 C 8.132813 23.148438 7.792969 23.699219 7.53125 24.15625 C 7.402344 24.386719 7.273438 24.589844 7.1875 24.78125 C 7.101563 24.972656 7 25.054688 7 25.5 C 7 25.863281 7.070313 25.949219 7.125 26.09375 C 7.179688 26.238281 7.261719 26.367188 7.34375 26.53125 C 7.507813 26.859375 7.710938 27.261719 7.96875 27.71875 C 8.484375 28.632813 9.164063 29.765625 9.84375 30.875 C 11.074219 32.890625 12.09375 34.5 12.3125 34.84375 C 12.140625 35.222656 11.84375 35.800781 11.65625 37.03125 C 11.46875 38.265625 11.542969 39.835938 12.40625 41.15625 C 12.589844 43.582031 12.355469 45.195313 11.90625 46 C 11.582031 46.574219 11.195313 46.871094 10.5 46.96875 C 10.675781 44.875 10.78125 40.265625 8.9375 35.34375 C 8.777344 34.878906 8.296875 34.597656 7.8125 34.6875 C 7.511719 34.738281 7.25 34.925781 7.105469 35.195313 C 6.960938 35.460938 6.945313 35.78125 7.0625 36.0625 C 9.136719 41.59375 8.601563 46.519531 8.46875 47.46875 C 7.992188 47.800781 7.488281 47.941406 6.875 47.96875 C 5.839844 34.339844 2 24.394531 2 15.40625 C 2 12.667969 2.683594 10.246094 3.875 8.59375 C 5.066406 6.941406 6.695313 6 9 6 Z M 41 6 C 43.304688 6 44.933594 6.941406 46.125 8.59375 C 47.316406 10.246094 48 12.667969 48 15.40625 C 48 24.394531 44.160156 34.339844 43.125 47.96875 C 42.476563 47.9375 41.949219 47.785156 41.53125 47.46875 C 41.398438 46.519531 40.863281 41.59375 42.9375 36.0625 C 43.082031 35.726563 43.027344 35.335938 42.800781 35.050781 C 42.570313 34.761719 42.203125 34.625 41.84375 34.6875 C 41.484375 34.746094 41.183594 35 41.0625 35.34375 C 39.226563 40.242188 39.324219 44.832031 39.5 46.9375 C 38.804688 46.820313 38.414063 46.53125 38.09375 45.96875 C 37.644531 45.175781 37.410156 43.582031 37.59375 41.15625 C 38.457031 39.835938 38.53125 38.265625 38.34375 37.03125 C 38.15625 35.800781 37.859375 35.222656 37.6875 34.84375 C 37.90625 34.5 38.925781 32.890625 40.15625 30.875 C 40.835938 29.765625 41.515625 28.632813 42.03125 27.71875 C 42.289063 27.261719 42.492188 26.859375 42.65625 26.53125 C 42.738281 26.367188 42.820313 26.238281 42.875 26.09375 C 42.929688 25.949219 43 25.863281 43 25.5 C 43 24.972656 42.898438 24.960938 42.8125 24.78125 C 42.726563 24.601563 42.597656 24.410156 42.46875 24.1875 C 42.210938 23.738281 41.867188 23.183594 41.46875 22.5625 C 40.671875 21.320313 39.671875 19.839844 38.8125 18.625 C 38.035156 17.558594 36.984375 15.953125 35.71875 14.59375 C 35.03125 13.855469 34.238281 13.207031 33.375 12.71875 C 33.484375 12.605469 33.613281 12.523438 33.71875 12.40625 C 34.441406 11.582031 35.140625 10.566406 35.875 9.59375 C 37.347656 7.648438 38.914063 6 41 6 Z M 19.40625 18.96875 C 20.121094 20.226563 20.882813 21.492188 21.375 22.15625 C 21.863281 22.8125 21.949219 23.171875 22.0625 23.625 C 20.882813 24.261719 19.761719 24.769531 19.03125 24.90625 C 18.328125 25.035156 18.140625 24.980469 18 24.96875 C 17.722656 24.683594 17.136719 24.023438 17.1875 23.15625 C 17.1875 23.136719 17.1875 23.113281 17.1875 23.09375 C 17.1875 21.15625 18.382813 19.882813 19.40625 18.96875 Z M 30.59375 18.96875 C 31.617188 19.882813 32.8125 21.15625 32.8125 23.09375 C 32.8125 23.113281 32.8125 23.136719 32.8125 23.15625 C 32.863281 24.023438 32.277344 24.683594 32 24.96875 C 31.859375 24.980469 31.671875 25.035156 30.96875 24.90625 C 30.238281 24.769531 29.117188 24.261719 27.9375 23.625 C 28.050781 23.171875 28.136719 22.8125 28.625 22.15625 C 29.117188 21.492188 29.878906 20.226563 30.59375 18.96875 Z M 15.28125 24 C 15.613281 25.734375 16.96875 26.78125 16.96875 26.78125 C 17.074219 27.386719 17.578125 30.253906 17.6875 31.875 C 17.679688 31.914063 17.660156 31.984375 17.625 32.0625 C 17.566406 32.1875 17.445313 32.394531 17.34375 32.59375 C 16.777344 31.46875 15.964844 30.042969 15.21875 28.75 C 14.410156 27.347656 13.933594 26.597656 13.6875 26.1875 Z M 34.71875 24 L 36.3125 26.1875 C 36.066406 26.597656 35.589844 27.347656 34.78125 28.75 C 34.035156 30.042969 33.222656 31.46875 32.65625 32.59375 C 32.554688 32.394531 32.433594 32.1875 32.375 32.0625 C 32.335938 31.976563 32.316406 31.875 32.3125 31.84375 C 32.425781 30.214844 32.925781 27.382813 33.03125 26.78125 C 33.03125 26.78125 34.386719 25.734375 34.71875 24 Z M 25 25 C 25.386719 25 26.410156 25.214844 26.5625 25.25 C 28.152344 26.195313 29.554688 26.683594 30.59375 26.875 C 30.730469 26.898438 30.84375 26.890625 30.96875 26.90625 C 30.785156 27.953125 30.398438 30.28125 30.3125 31.9375 C 30.3125 31.957031 30.3125 31.980469 30.3125 32 C 30.3125 32.484375 30.441406 32.644531 30.5625 32.90625 C 30.683594 33.167969 30.824219 33.460938 31 33.78125 C 31.355469 34.425781 31.800781 35.191406 32.25 36.0625 C 32.3125 36.183594 32.375 36.3125 32.4375 36.4375 C 31.125 36.980469 28.1875 38 25 38 C 21.8125 38 18.875 36.980469 17.5625 36.4375 C 17.625 36.3125 17.6875 36.183594 17.75 36.0625 C 17.777344 36.007813 17.785156 35.960938 17.8125 35.90625 C 18.234375 35.105469 18.667969 34.382813 19 33.78125 C 19.175781 33.460938 19.316406 33.167969 19.4375 32.90625 C 19.558594 32.644531 19.6875 32.484375 19.6875 32 C 19.6875 31.980469 19.6875 31.957031 19.6875 31.9375 C 19.601563 30.28125 19.214844 27.953125 19.03125 26.90625 C 19.15625 26.890625 19.269531 26.898438 19.40625 26.875 C 20.472656 26.675781 21.921875 26.183594 23.5625 25.1875 C 24.011719 25.105469 24.703125 25 25 25 Z M 25 34.90625 C 24.722656 34.90625 24.5 35.207031 24.5 35.59375 C 24.5 35.980469 24.722656 36.3125 25 36.3125 C 25.277344 36.3125 25.5 35.980469 25.5 35.59375 C 25.5 35.207031 25.277344 34.90625 25 34.90625 Z M 16.75 38.25 C 18.191406 38.847656 21.398438 40 25 40 C 28.601563 40 31.808594 38.847656 33.25 38.25 C 33.40625 38.648438 33.539063 39.046875 33.65625 39.4375 C 31.863281 39.746094 27.71875 40.875 25.53125 45 L 24.46875 45 C 22.304688 40.914063 18.199219 39.757813 16.375 39.4375 C 16.488281 39.050781 16.59375 38.648438 16.75 38.25 Z"/>
</svg>
