<?xml version="1.0" encoding="UTF-8" standalone="yes"?>
<svg xmlns="http://www.w3.org/2000/svg" viewBox="0 0 26 26" width="34" height="34" fill="#f3f0ff">
  <path d="M 13 0.09375 C 12.101563 0.09375 11.289063 0.203125 10.65625 0.40625 C 10.339844 0.507813 10.070313 0.640625 9.84375 0.8125 C 9.617188 0.984375 9.40625 1.246094 9.40625 1.59375 C 9.40625 1.941406 9.617188 2.203125 9.84375 2.375 C 10.070313 2.546875 10.339844 2.679688 10.65625 2.78125 C 11.289063 2.984375 12.101563 3.09375 13 3.09375 C 13.898438 3.09375 14.710938 2.984375 15.34375 2.78125 C 15.660156 2.679688 15.929688 2.546875 16.15625 2.375 C 16.382813 2.203125 16.59375 1.941406 16.59375 1.59375 C 16.59375 1.246094 16.382813 0.984375 16.15625 0.8125 C 15.929688 0.640625 15.660156 0.507813 15.34375 0.40625 C 14.710938 0.203125 13.898438 0.09375 13 0.09375 Z M 13 1.09375 C 13.8125 1.09375 14.539063 1.21875 15.03125 1.375 C 15.277344 1.453125 15.476563 1.527344 15.5625 1.59375 C 15.476563 1.660156 15.277344 1.765625 15.03125 1.84375 C 14.539063 2 13.8125 2.09375 13 2.09375 C 12.1875 2.09375 11.460938 2 10.96875 1.84375 C 10.722656 1.765625 10.523438 1.660156 10.4375 1.59375 C 10.523438 1.527344 10.722656 1.453125 10.96875 1.375 C 11.460938 1.21875 12.1875 1.09375 13 1.09375 Z M 4.6875 2 C 1.988281 2 0 5 0 8 C 0 12.898438 2.5 18.699219 3 26 C 4.101563 26 5.40625 25.5 5.40625 24 C 6.363281 24 7.101563 23.628906 7.40625 22.21875 C 7.472656 22.769531 7.558594 23.339844 7.65625 23.875 C 7.832031 24.835938 8 25.625 8 25.625 C 8.070313 25.902344 8.347656 26.070313 8.625 26 C 8.902344 25.929688 9.070313 25.652344 9 25.375 C 9 25.375 8.828125 24.625 8.65625 23.6875 C 8.484375 22.75 8.3125 21.617188 8.3125 21 C 8.3125 20.851563 8.34375 20.695313 8.375 20.53125 C 9.433594 20.917969 11.46875 21.882813 12.40625 23.90625 L 13.59375 23.90625 C 14.53125 21.882813 16.566406 20.917969 17.625 20.53125 C 17.65625 20.695313 17.6875 20.851563 17.6875 21 C 17.6875 21.617188 17.515625 22.75 17.34375 23.6875 C 17.171875 24.625 17 25.375 17 25.375 C 16.929688 25.652344 17.097656 25.929688 17.375 26 C 17.652344 26.070313 17.929688 25.902344 18 25.625 C 18 25.625 18.167969 24.835938 18.34375 23.875 C 18.433594 23.394531 18.53125 22.875 18.59375 22.375 C 18.90625 23.625 19.648438 24 20.59375 24 C 20.59375 25.5 21.898438 26 23 26 C 23.5 18.699219 26 12.898438 26 8 C 26 5 24.011719 2 21.3125 2 C 17.613281 2 16 7 16 7 C 17.199219 7 18.101563 8.898438 18.5 9.5 C 19.5 10.699219 21.8125 13.398438 21.8125 14 C 21.8125 14.300781 19 18.1875 19 18.1875 C 19 18.1875 19.832031 20.21875 18.65625 21.53125 C 18.667969 21.359375 18.6875 21.152344 18.6875 21 C 18.6875 20.503906 18.546875 20.027344 18.375 19.5625 C 18.363281 19.523438 18.355469 19.480469 18.34375 19.4375 C 18.332031 19.40625 18.324219 19.375 18.3125 19.34375 C 18.179688 18.738281 18.160156 18.007813 18.25 17.78125 C 18.261719 17.78125 18.269531 17.78125 18.28125 17.78125 C 18.644531 16.78125 19.9375 14.21875 19.9375 14.21875 C 20.027344 14.03125 19.988281 13.804688 19.84375 13.65625 L 17.875 11.6875 C 17.539063 10.507813 16.425781 9.867188 15.5 8.6875 C 14.628906 10.28125 14.246094 11.257813 14.09375 12.125 C 14.019531 12.109375 14.023438 12.109375 13.9375 12.09375 C 13.628906 12.042969 13.285156 12 13 12 C 12.5625 12 12.144531 12.128906 11.9375 12.1875 C 11.792969 11.304688 11.390625 10.320313 10.5 8.6875 C 9.574219 9.867188 8.460938 10.507813 8.125 11.6875 L 6.15625 13.65625 C 6.011719 13.804688 5.972656 14.03125 6.0625 14.21875 C 6.0625 14.21875 7.355469 16.78125 7.71875 17.78125 C 7.730469 17.78125 7.738281 17.78125 7.75 17.78125 C 7.851563 18.035156 7.804688 18.929688 7.625 19.5625 C 7.453125 20.027344 7.3125 20.503906 7.3125 21 C 7.3125 21.097656 7.339844 21.234375 7.34375 21.34375 C 6.085938 20.039063 7 18.09375 7 18.09375 C 7 18.09375 4.1875 14.304688 4.1875 13.90625 C 4.1875 13.40625 6.5 10.707031 7.5 9.40625 C 7.898438 8.90625 8.800781 7 10 7 C 10 7 8.386719 2 4.6875 2 Z M 8.1875 13 C 8.382813 13.304688 8.699219 13.542969 9.03125 13.71875 C 9.085938 13.925781 9.097656 13.925781 9.15625 14.1875 C 9.320313 14.902344 9.484375 15.75 9.5 16.3125 C 9.496094 16.328125 9.484375 16.347656 9.46875 16.375 C 9.421875 16.457031 9.351563 16.601563 9.25 16.75 C 9.105469 16.960938 8.890625 17.265625 8.6875 17.5625 C 8.675781 17.523438 8.671875 17.476563 8.65625 17.4375 C 8.652344 17.429688 8.660156 17.414063 8.65625 17.40625 C 8.25 16.304688 7.28125 14.453125 7.09375 14.09375 Z M 13 13 C 13.117188 13 13.488281 13.046875 13.78125 13.09375 C 13.9375 13.121094 13.964844 13.136719 14.0625 13.15625 C 14.957031 13.800781 15.402344 13.9375 15.875 13.96875 C 15.699219 14.742188 15.5 15.675781 15.5 16.40625 C 15.5 16.683594 15.582031 16.746094 15.65625 16.875 C 15.730469 17.003906 15.832031 17.15625 15.9375 17.3125 C 16.148438 17.621094 16.421875 17.988281 16.6875 18.40625 C 16.890625 18.722656 17.058594 19.0625 17.21875 19.40625 C 16.628906 19.644531 15.410156 20 13 20 C 10.589844 20 9.371094 19.644531 8.78125 19.40625 C 8.941406 19.0625 9.109375 18.722656 9.3125 18.40625 C 9.578125 17.988281 9.851563 17.621094 10.0625 17.3125 C 10.167969 17.15625 10.269531 17.003906 10.34375 16.875 C 10.417969 16.746094 10.5 16.683594 10.5 16.40625 C 10.5 15.675781 10.300781 14.742188 10.125 13.96875 C 10.582031 13.9375 11.007813 13.78125 11.84375 13.1875 C 11.90625 13.199219 11.96875 13.199219 12.03125 13.1875 C 12.03125 13.1875 12.765625 13 13 13 Z M 17.8125 13 L 18.90625 14.09375 C 18.71875 14.453125 17.75 16.304688 17.34375 17.40625 C 17.339844 17.414063 17.347656 17.429688 17.34375 17.4375 C 17.328125 17.476563 17.324219 17.523438 17.3125 17.5625 C 17.109375 17.265625 16.894531 16.960938 16.75 16.75 C 16.648438 16.601563 16.578125 16.457031 16.53125 16.375 C 16.507813 16.335938 16.503906 16.285156 16.5 16.28125 C 16.519531 15.714844 16.683594 14.890625 16.84375 14.1875 C 16.902344 13.925781 16.914063 13.925781 16.96875 13.71875 C 17.300781 13.542969 17.617188 13.304688 17.8125 13 Z M 13 18.09375 C 12.835938 18.09375 12.6875 18.277344 12.6875 18.5 C 12.6875 18.722656 12.835938 18.90625 13 18.90625 C 13.164063 18.90625 13.3125 18.722656 13.3125 18.5 C 13.3125 18.277344 13.164063 18.09375 13 18.09375 Z"/>
</svg>