<svg xmlns="http://www.w3.org/2000/svg" viewBox="0 0 64 64" width="96" height="96"><linearGradient id="1oeBABVuXhQHZ~TaWZW6xa" x1="32" x2="32" y1="7" y2="57" gradientUnits="userSpaceOnUse" spreadMethod="reflect"><stop offset="0" stop-color="#1a6dff"/><stop offset="1" stop-color="#c822ff"/></linearGradient><path fill="url(#1oeBABVuXhQHZ~TaWZW6xa)" d="M53,45.539c2.526-3.905,4-8.552,4-13.539s-1.474-9.634-4-13.539V11h-7.461 C41.634,8.474,36.987,7,32,7s-9.634,1.474-13.539,4H11v7.461C8.474,22.366,7,27.013,7,32s1.474,9.634,4,13.539V53h7.461 c3.905,2.526,8.552,4,13.539,4s9.634-1.474,13.539-4H53V45.539z M51,13v2.779c-0.853-0.997-1.782-1.926-2.779-2.779H51z M13,13 h2.779c-0.997,0.853-1.926,1.782-2.779,2.779V13z M13,51v-2.779c0.853,0.997,1.782,1.926,2.779,2.779H13z M9,32 C9,19.318,19.317,9,32,9s23,10.318,23,23S44.683,55,32,55S9,44.682,9,32z M48.221,51c0.997-0.853,1.926-1.782,2.779-2.779V51H48.221 z"/><linearGradient id="1oeBABVuXhQHZ~TaWZW6xb" x1="32" x2="32" y1="18" y2="49" gradientUnits="userSpaceOnUse" spreadMethod="reflect"><stop offset="0" stop-color="#6dc7ff"/><stop offset="1" stop-color="#e6abff"/></linearGradient><path fill="url(#1oeBABVuXhQHZ~TaWZW6xb)" d="M38.714,18L40,21l-3.127,16.534L31,23l-5.871,14.534L22,21l1.286-3H15l6,28l-1,3h9l-1-3 l3-7.091L34,46l-1,3h10l-2-3l6-25l2-3H38.714z"/></svg>